<?xml version="1.0" standalone="no"?>
<!DOCTYPE svg PUBLIC "-//W3C//DTD SVG 20010904//EN"
 "http://www.w3.org/TR/2001/REC-SVG-20010904/DTD/svg10.dtd">
<svg version="1.0" xmlns="http://www.w3.org/2000/svg"
 width="162.000000pt" height="162.000000pt" viewBox="0 0 162.000000 162.000000"
 preserveAspectRatio="xMidYMid meet">
<metadata>
Created by potrace 1.14, written by Peter Selinger 2001-2017
</metadata>
<g transform="translate(0.000000,162.000000) scale(0.100000,-0.100000)"
fill="#000000" stroke="none">
<path d="M620 1428 c-69 -34 -143 -114 -168 -181 -12 -32 -22 -63 -22 -70 0
-7 -35 -29 -78 -49 -98 -47 -184 -116 -245 -198 -26 -36 -60 -78 -74 -95 -35
-39 -38 -108 -6 -145 12 -14 37 -44 57 -68 77 -94 210 -177 324 -204 52 -12
55 -14 78 -67 28 -64 91 -134 146 -162 29 -15 58 -19 132 -19 88 0 97 2 110
23 10 17 12 35 6 77 -5 30 -9 71 -9 91 l-1 37 68 16 c104 27 209 72 291 127
41 27 77 49 80 48 3 0 26 -27 49 -60 51 -70 118 -119 172 -126 32 -5 43 -1 64
20 34 34 33 69 -4 149 -62 132 -62 224 0 356 17 36 30 77 30 94 0 38 -40 78
-77 78 -47 0 -130 -56 -180 -120 -25 -33 -49 -60 -53 -60 -4 0 -36 23 -71 51
-35 28 -89 66 -120 85 l-56 35 8 44 c11 59 32 106 58 129 28 25 28 64 -1 76
-38 16 -413 110 -439 110 -13 0 -44 -10 -69 -22z"/>
</g>
</svg>
